<?xml version="1.0" standalone="no"?><!DOCTYPE svg PUBLIC "-//W3C//DTD SVG 1.1//EN" "http://www.w3.org/Graphics/SVG/1.1/DTD/svg11.dtd"><svg t="1615037809892" class="icon" viewBox="0 0 1024 1024" version="1.1" xmlns="http://www.w3.org/2000/svg" p-id="3108" xmlns:xlink="http://www.w3.org/1999/xlink" width="200" height="200"><defs><style type="text/css"></style></defs><path d="M118.153846 883.003077c14.178462 14.178462 33.870769 22.843077 55.926154 22.843077h630.153846c43.323077 0 78.769231-35.446154 78.769231-78.769231V196.923077c0-22.055385-8.664615-41.747692-22.843077-55.926154L118.153846 883.003077z" fill="#BFBFBF" p-id="3109"></path><path d="M827.076923 937.353846H196.923077c-60.652308 0-110.276923-49.624615-110.276923-110.276923V196.923077c0-60.652308 49.624615-110.276923 110.276923-110.276923h630.153846c60.652308 0 110.276923 49.624615 110.276923 110.276923v630.153846c0 60.652308-49.624615 110.276923-110.276923 110.276923zM196.923077 149.661538c-25.993846 0-47.261538 21.267692-47.261539 47.261539v630.153846c0 25.993846 21.267692 47.261538 47.261539 47.261539h630.153846c25.993846 0 47.261538-21.267692 47.261539-47.261539V196.923077c0-25.993846-21.267692-47.261538-47.261539-47.261539H196.923077z" fill="#7F7F7F" p-id="3110"></path><path d="M413.538462 385.969231h-157.538462c-17.329231 0-31.507692-14.178462-31.507692-31.507693s14.178462-31.507692 31.507692-31.507692h157.538462c17.329231 0 31.507692 14.178462 31.507692 31.507692s-14.178462 31.507692-31.507692 31.507693zM374.153846 543.507692h-118.153846c-17.329231 0-31.507692-14.178462-31.507692-31.507692s14.178462-31.507692 31.507692-31.507692h118.153846c17.329231 0 31.507692 14.178462 31.507692 31.507692s-14.178462 31.507692-31.507692 31.507692zM413.538462 701.046154h-157.538462c-17.329231 0-31.507692-14.178462-31.507692-31.507692s14.178462-31.507692 31.507692-31.507693h157.538462c17.329231 0 31.507692 14.178462 31.507692 31.507693s-14.178462 31.507692-31.507692 31.507692z" fill="#808080" p-id="3111"></path><path d="M256 701.046154c-17.329231 0-31.507692-14.178462-31.507692-31.507692V354.461538c0-17.329231 14.178462-31.507692 31.507692-31.507692s31.507692 14.178462 31.507692 31.507692v315.076924c0 17.329231-14.178462 31.507692-31.507692 31.507692z" fill="#808080" p-id="3112"></path><path d="M768 701.046154c-9.452308 0-18.904615-4.726154-25.206154-12.603077L563.2 448.984615v220.553847c0 17.329231-14.178462 31.507692-31.507692 31.507692s-31.507692-14.178462-31.507693-31.507692V354.461538c0-13.390769 8.664615-25.993846 21.267693-29.932307s26.781538 0 35.446154 11.027692L736.492308 575.015385V354.461538c0-17.329231 14.178462-31.507692 31.507692-31.507692s31.507692 14.178462 31.507692 31.507692v315.076924c0 13.390769-8.664615 25.993846-21.267692 29.932307-3.938462 0.787692-7.089231 1.575385-10.24 1.575385z" fill="#808080" p-id="3113"></path></svg>