<?xml version="1.0" standalone="no"?><!DOCTYPE svg PUBLIC "-//W3C//DTD SVG 1.1//EN" "http://www.w3.org/Graphics/SVG/1.1/DTD/svg11.dtd"><svg t="1615038552337" class="icon" viewBox="0 0 1024 1024" version="1.1" xmlns="http://www.w3.org/2000/svg" p-id="11882" xmlns:xlink="http://www.w3.org/1999/xlink" width="200" height="200"><defs><style type="text/css"></style></defs><path d="M485.7 890.6H170.1V134.8h619.5v361.9c24.9 8.5 48.1 20.5 69 35.6v-432c0-19-15.5-34.5-34.5-34.5H135.6c-19 0-34.5 15.5-34.5 34.5v824.8c0 19 15.5 34.5 34.5 34.5h416.6c-26.2-18.8-48.8-42.2-66.5-69z" fill="#8a8a8a" p-id="11883"></path><path d="M289.1 767.9H481c17.7 0 32-14.3 32-32s-14.3-32-32-32H289.1c-17.7 0-32 14.3-32 32s14.3 32 32 32zM289.1 640H481c17.7 0 32-14.3 32-32s-14.3-32-32-32H289.1c-17.7 0-32 14.3-32 32s14.3 32 32 32zM352.1 959.6H544c17.7 0 32-14.3 32-32v-5c0-17.7-14.3-32-32-32H352.1c-17.7 0-32 14.3-32 32v5c0 17.6 14.4 32 32 32zM789.6 335.1V527c0 17.7 14.3 32 32 32h5c17.7 0 32-14.3 32-32V335.1c0-17.7-14.3-32-32-32h-5c-17.7 0-32 14.4-32 32zM896.2 640H640.1c-17.7 0-32-14.3-32-32s14.3-32 32-32h256.1c17.7 0 32 14.3 32 32s-14.3 32-32 32z" fill="#8a8a8a" p-id="11884"></path><path d="M608.1 927.6V607.8c0-17.7 14.3-32 32-32s32 14.3 32 32v319.7c0 17.7-14.3 32-32 32-17.6 0.1-32-14.3-32-31.9zM864.2 927.9V608.1c0-17.7 14.3-32 32-32s32 14.3 32 32v319.7c0 17.7-14.3 32-32 32-17.7 0.1-32-14.3-32-31.9z" fill="#8a8a8a" p-id="11885"></path><path d="M617.5 905.6l128-128c12.5-12.5 32.8-12.5 45.3 0s12.5 32.8 0 45.3l-128 128c-12.5 12.5-32.8 12.5-45.3 0s-12.5-32.8 0-45.3z" fill="#8a8a8a" p-id="11886"></path><path d="M790.8 777.2l128 128c12.5 12.5 12.5 32.8 0 45.3s-32.8 12.5-45.3 0l-128-128c-12.5-12.5-12.5-32.8 0-45.3s32.8-12.5 45.3 0z" fill="#8a8a8a" p-id="11887"></path><path d="M364.1 402.9c0.9 10.1 3.7 26.1 8.4 48.2-22.3 15.7-47.2 35.3-74.9 58.7l-21.8-38.7c5.9-7.3 8.9-16.1 9.1-26.4V332.9h-28.1v-45.7h75.9v140.3l31.4-24.6z m-57.7-222.2c13.6 19.2 27.9 40.8 42.9 64.7-11 5.9-25.2 14.3-42.5 25.3-12.7-22.7-25.7-44.6-39-65.7l38.6-24.3zM356 465.1h28.8V289.7h47.5v175.4h38V250.7h-103v-46.4h233.4v46.4h-83v79.5h74.5v46.1h-74.5v88.9h87.2v47.1H356v-47.2z" fill="#8a8a8a" p-id="11888"></path></svg>